<?xml version="1.0" standalone="no"?><!DOCTYPE svg PUBLIC "-//W3C//DTD SVG 1.1//EN" "http://www.w3.org/Graphics/SVG/1.1/DTD/svg11.dtd"><svg t="1523587462154" class="icon" style="" viewBox="0 0 1024 1024" version="1.1" xmlns="http://www.w3.org/2000/svg" p-id="3839" xmlns:xlink="http://www.w3.org/1999/xlink" width="16" height="16"><defs><style type="text/css"></style></defs><path d="M736 688.016v-0.032 0.032z m0-352.032v0c0 0.016 0 0.016 0 0zM704 336a47.84 47.84 0 0 0-33.936 14.064L448 572.128l-110.064-110.064a48 48 0 1 0-67.872 67.872l144 144c8.688 8.688 20.688 14.064 33.936 14.064s25.248-5.376 33.936-14.064l256-256A48 48 0 0 0 704 336zM512 0C229.232 0 0 229.232 0 512s229.232 512 512 512 512-229.232 512-512S794.768 0 512 0z m0 928C282.256 928 96 741.744 96 512 96 282.24 282.256 96 512 96s416 186.24 416 416c0 229.744-186.256 416-416 416z" fill="#1296db" p-id="3840"></path></svg>