<?xml version="1.0" standalone="no"?><!DOCTYPE svg PUBLIC "-//W3C//DTD SVG 1.1//EN" "http://www.w3.org/Graphics/SVG/1.1/DTD/svg11.dtd"><svg t="1523442361800" class="icon" style="" viewBox="0 0 1024 1024" version="1.1" xmlns="http://www.w3.org/2000/svg" p-id="4339" xmlns:xlink="http://www.w3.org/1999/xlink" width="48" height="48"><defs><style type="text/css"></style></defs><path d="M777.666662 483.387335c-138.530077 0-250.826676 113.436562-250.826676 253.365498 0 53.44319 16.470113 102.950743 44.436048 143.824663-19.658735 14.5903-40.023552 29.349445-61.458747 44.342927C191.179181 702.782138 71.126944 524.853749 71.126944 380.920616l0-49.869804c0-150.726863 111.075795-228.930993 197.469444-236.863662 13.462616-2.26253 26.926256-2.26253 39.265282-2.26253 99.860359 0 146.984632 41.933041 201.955618 107.664092 53.855582-65.730027 102.099353-107.664092 200.838168-107.664092 12.341073 0 25.804712 0 39.271422 2.26253 86.391602 7.93267 197.46535 86.137823 197.46535 236.863662l0 49.869804c0 43.966351-11.368932 91.149976-35.979446 141.753491C872.671433 497.924423 826.894853 483.387335 777.666662 483.387335zM157.956521 245.699911c-120.219035 173.157735 86.824461 344.067266 86.824461 344.067266S35.509748 153.504116 434.011788 218.714304C420.656619 207.468169 278.172487 72.5432 157.956521 245.699911zM777.60117 547.790134c103.282295 0 187.008184 84.575234 187.008184 188.900278 0 104.322997-83.72589 188.900278-187.008184 188.900278-103.280248 0-187.004091-84.577281-187.004091-188.900278C590.597079 632.364345 674.319899 547.790134 777.60117 547.790134zM752.209874 875.042433c24.958438-46.216601 101.906971-140.747581 139.339512-149.151995-14.554484-33.611515-6.237051-60.920488-4.154623-92.432179-85.270059 44.116777-139.345652 176.463014-139.345652 176.463014l-33.273824-65.1273-68.629054 42.018999C675.263387 797.316188 716.858738 830.927703 752.209874 875.042433z" p-id="4340" fill="#d81e06"></path></svg>