<?xml version="1.0" standalone="no"?><!DOCTYPE svg PUBLIC "-//W3C//DTD SVG 1.1//EN" "http://www.w3.org/Graphics/SVG/1.1/DTD/svg11.dtd"><svg t="1525517270722" class="icon" style="" viewBox="0 0 1482 1024" version="1.1" xmlns="http://www.w3.org/2000/svg" p-id="619" xmlns:xlink="http://www.w3.org/1999/xlink" width="92.625" height="64"><defs><style type="text/css"></style></defs><path d="M1123.733333 198.933333v742.933334c0 45.333333-36.8 82.133333-81.6 82.133333H438.933333c-45.333333 0-81.6-36.8-81.6-81.6V198.933333C357.333333 154.133333 394.133333 117.333333 438.933333 117.333333h65.066667v32H438.933333c-27.2 0-49.6 22.4-49.6 49.6v742.933334c0 27.2 22.4 49.6 49.6 49.6h603.2c27.2 0 49.6-22.4 49.6-49.6v-310.4c4.266667-9.6 6.933333-20.8 6.933334-33.6 0-12.266667-2.133333-23.466667-6.933334-33.066667V198.933333c0-27.2-22.4-49.6-49.6-49.6H986.666667v-32h55.466666c45.333333 0 81.6 36.8 81.6 81.6z" fill="#1296db" p-id="620"></path><path d="M908.266667 74.666667h-89.6c0-41.066667-33.6-74.666667-74.666667-74.666667s-74.666667 33.6-74.666667 74.666667h-89.6c-25.6 0-46.4 20.8-46.4 46.4V181.333333h421.333334V121.066667c0-25.6-20.8-46.4-46.4-46.4z m-164.266667-48c26.666667 0 48 21.333333 48 48s-21.333333 48-48 48-48-21.333333-48-48 21.333333-48 48-48z" fill="#1296db" p-id="621"></path><path d="M964.266667 341.333333h-458.666667c-9.066667 0-16-6.933333-16-16s6.933333-16 16-16h458.666667c9.066667 0 16 6.933333 16 16s-7.466667 16-16 16zM778.666667 496H505.6c-9.066667 0-16-6.933333-16-16s6.933333-16 16-16H778.666667c9.066667 0 16 6.933333 16 16s-6.933333 16-16 16zM704 656H505.6c-9.066667 0-16-6.933333-16-16s6.933333-16 16-16H704c9.066667 0 16 6.933333 16 16s-6.933333 16-16 16zM778.666667 826.666667H505.6c-9.066667 0-16-6.933333-16-16s6.933333-16 16-16H778.666667c9.066667 0 16 6.933333 16 16s-6.933333 16-16 16z" fill="#1296db" p-id="622"></path><path d="M1216 558.4c-12.266667-29.333333 13.333333-84.8-8.533333-106.666667-17.066667-17.066667-54.4-5.333333-83.733334-5.333333-8.533333 0-16.533333-0.533333-22.933333-3.733333-3.2-1.066667-6.4-3.2-9.066667-5.333334-24-18.133333-43.733333-64-72.533333-64-32.533333 0-53.333333 57.6-81.6 69.333334-29.333333 12.266667-84.8-13.333333-106.666667 8.533333s3.733333 77.333333-8.533333 106.666667c-11.733333 28.266667-69.333333 49.066667-69.333333 81.6s57.6 53.333333 69.333333 81.6c12.266667 29.333333-13.333333 84.8 8.533333 106.666666s77.333333-3.733333 106.666667 8.533334c28.266667 11.733333 49.066667 69.333333 81.6 69.333333 28.8 0 48.533333-45.866667 72.533333-64 2.666667-2.133333 5.866667-4.266667 9.066667-5.333333 6.4-2.666667 14.4-3.733333 22.933333-3.733334 29.333333 0 66.666667 11.733333 83.733334-5.333333 21.866667-21.866667-3.733333-77.333333 8.533333-106.666667 11.733333-28.266667 69.333333-49.066667 69.333333-81.6s-57.6-52.266667-69.333333-80.533333z m-181.333333 221.866667c-5.333333 4.8-11.733333 7.466667-19.733334 7.466666s-14.4-2.666667-19.733333-8c-5.333333-4.8-8-11.2-8-19.2s2.666667-14.4 8-19.2 11.733333-7.466667 19.733333-7.466666c7.466667 0 14.4 2.133333 19.733334 7.466666 4.8 4.8 8 11.2 8 19.2s-2.666667 14.4-8 19.733334z m57.066666-148.8c-1.6 3.2-3.2 6.4-5.333333 9.066666-0.533333 1.066667-1.066667 1.6-2.133333 2.133334-4.266667 4.266667-13.866667 13.333333-29.333334 27.2-6.4 5.333333-11.2 11.2-14.4 17.6-3.733333 6.933333-5.333333 14.4-5.333333 22.933333v4.8h-41.066667v-4.8c0-13.333333 2.133333-25.066667 6.933334-35.2 4.8-9.6 18.133333-24 40.533333-44.266667l1.6-1.6 3.2-4.266666c6.4-8 9.6-16.533333 9.6-25.066667 0-11.733333-3.733333-20.8-10.133333-27.733333-6.933333-6.933333-16.533333-10.133333-28.266667-10.133334-15.466667 0-26.666667 4.8-33.6 14.4-3.733333 4.8-5.866667 11.2-7.466667 18.666667-1.6 9.6-9.6 16.533333-19.2 16.533333h-1.6c-12.266667 0-21.866667-11.733333-19.2-23.466666 3.2-15.466667 10.133333-28.266667 20.8-38.4 15.466667-14.933333 36.266667-22.4 62.4-22.4 24.533333 0.533333 43.2 6.4 57.6 19.2 6.4 5.333333 10.666667 11.2 14.4 18.133333 4.8 9.6 6.933333 20.266667 6.933334 33.066667 0 12.8-2.666667 24-6.933334 33.6z" fill="#1296db" p-id="623"></path><path d="M1042.666667 760.533333c0 8-2.666667 14.4-8 19.733334-5.333333 4.8-11.733333 7.466667-19.733334 7.466666s-14.4-2.666667-19.733333-8c-5.333333-4.8-8-11.2-8-19.2s2.666667-14.4 8-19.2 11.733333-7.466667 19.733333-7.466666c7.466667 0 14.4 2.133333 19.733334 7.466666 4.8 4.8 8 11.2 8 19.2zM1098.666667 597.866667c0 12.8-2.666667 24-6.933334 33.6-1.6 3.2-3.2 6.4-5.333333 9.066666-0.533333 1.066667-1.066667 1.6-2.133333 2.133334-4.266667 4.266667-13.866667 13.333333-29.333334 27.2-6.4 5.333333-11.2 11.2-14.4 17.6-3.733333 6.933333-5.333333 14.4-5.333333 22.933333v4.8h-41.066667v-4.8c0-13.333333 2.133333-25.066667 6.933334-35.2 4.8-9.6 18.133333-24 40.533333-44.266667l1.6-1.6 3.2-4.266666c6.4-8 9.6-16.533333 9.6-25.066667 0-11.733333-3.733333-20.8-10.133333-27.733333-6.933333-6.933333-16.533333-10.133333-28.266667-10.133334-15.466667 0-26.666667 4.8-33.6 14.4-3.733333 4.8-5.866667 11.2-7.466667 18.666667-1.6 9.6-9.6 16.533333-19.2 16.533333h-1.6c-12.266667 0-21.866667-11.733333-19.2-23.466666 3.2-15.466667 10.133333-28.266667 20.8-38.4 15.466667-14.933333 36.266667-22.4 62.4-22.4 24.533333 0.533333 43.2 6.4 57.6 19.2 6.4 5.333333 10.666667 11.2 14.4 18.133333 4.8 9.6 6.933333 20.8 6.933334 33.066667z" fill="#1296db" p-id="624"></path><path d="M184 200m-29.333333 0a29.333333 29.333333 0 1 0 58.666666 0 29.333333 29.333333 0 1 0-58.666666 0Z" fill="#1296db" p-id="625"></path><path d="M1218.666667 909.333333m-24 0a24 24 0 1 0 48 0 24 24 0 1 0-48 0Z" fill="#1296db" p-id="626"></path><path d="M48 528c-26.666667 0-48-21.333333-48-48s21.333333-48 48-48 48 21.333333 48 48-21.333333 48-48 48z m0-74.666667c-14.933333 0-26.666667 11.733333-26.666667 26.666667s11.733333 26.666667 26.666667 26.666667 26.666667-11.733333 26.666667-26.666667-11.733333-26.666667-26.666667-26.666667zM224 640H149.333333c-5.866667 0-10.666667-4.8-10.666666-10.666667s4.8-10.666667 10.666666-10.666666h74.666667c5.866667 0 10.666667 4.8 10.666667 10.666666s-4.8 10.666667-10.666667 10.666667z" fill="#1296db" p-id="627"></path><path d="M186.666667 709.333333c-5.866667 0-10.666667-4.8-10.666667-10.666666v-128c0-5.866667 4.8-10.666667 10.666667-10.666667s10.666667 4.8 10.666666 10.666667v128c0 5.866667-4.8 10.666667-10.666666 10.666666zM1210.133333 246.933333H1157.333333c-4.266667 0-8-3.733333-8-8s3.733333-8 8-8h52.8c4.266667 0 8 3.733333 8 8s-3.733333 8-8 8z" fill="#1296db" p-id="628"></path><path d="M1184 296c-4.266667 0-8-3.733333-8-8V197.333333c0-4.266667 3.733333-8 8-8s8 3.733333 8 8v90.666667c0 4.266667-3.733333 8-8 8zM1470.933333 364.8H1386.666667c-5.866667 0-10.666667-4.8-10.666667-10.666667s4.8-10.666667 10.666667-10.666666h84.266666c5.866667 0 10.666667 4.8 10.666667 10.666666s-4.8 10.666667-10.666667 10.666667z" fill="#1296db" p-id="629"></path><path d="M1429.333333 437.333333c-5.866667 0-10.666667-4.8-10.666666-10.666666V309.333333c0-5.866667 4.8-10.666667 10.666666-10.666666s10.666667 4.8 10.666667 10.666666v117.333334c0 5.866667-4.8 10.666667-10.666667 10.666666z" fill="#1296db" p-id="630"></path></svg>