<?xml version="1.0" standalone="no"?><!DOCTYPE svg PUBLIC "-//W3C//DTD SVG 1.1//EN" "http://www.w3.org/Graphics/SVG/1.1/DTD/svg11.dtd"><svg t="1525586358066" class="icon" style="" viewBox="0 0 1024 1024" version="1.1" xmlns="http://www.w3.org/2000/svg" p-id="5105" xmlns:xlink="http://www.w3.org/1999/xlink" width="64" height="64"><defs><style type="text/css"></style></defs><path d="M813.454729 169.949941H220.52209c-53.15236 0-96.499916 43.347556-96.499916 96.499916v391.160088c0 53.15236 43.347556 96.499916 96.499916 96.499916l79.126491 1.720141 115.765496 109.745002c3.268268 4.300353 8.428691 6.70855 13.761129 6.708551 5.332437 0 10.492861-2.408198 13.761129-6.708551l115.765496-109.745002 254.580884-1.720141c53.15236 0 96.499916-43.347556 96.499916-96.499916V266.449857c0.172014-53.15236-43.175542-96.499916-96.327902-96.499916z m61.409037 487.660004c0 33.88678-27.522258 61.409037-61.409037 61.409037h-263.181589c-5.332437 0-10.492861 2.408198-13.761129 6.70855l-107.164791 100.628255-107.164791-100.628255c-3.268268-4.300353-8.428691-6.70855-13.761129-6.70855h-87.727196c-33.88678 0-61.409037-27.522258-61.409038-61.409037V266.449857c0-33.88678 27.522258-61.409037 61.409038-61.409037H813.626743c33.88678 0 61.409037 27.522258 61.409037 61.409037l-0.172014 391.160088z m-568.334621-270.062154c-38.703175 0-70.181757 31.478582-70.181757 70.181757 0 38.703175 31.478582 70.181757 70.181757 70.181757 38.703175 0 70.181757-31.478582 70.181757-70.181757 0-38.703175-31.478582-70.181757-70.181757-70.181757z m0 105.272636c-19.26558 0-35.090879-15.653284-35.090879-35.090879 0-19.26558 15.825298-35.090879 35.090879-35.090878s35.090879 15.825298 35.090879 35.090878-15.825298 35.090879-35.090879 35.090879z m210.545271-105.272636c-38.703175 0-70.181757 31.478582-70.181757 70.181757 0 38.703175 31.478582 70.181757 70.181757 70.181757 38.703175 0 70.181757-31.478582 70.181757-70.181757 0-38.703175-31.478582-70.181757-70.181757-70.181757z m0 105.272636c-19.26558 0-35.090879-15.653284-35.090878-35.090879 0-19.26558 15.825298-35.090879 35.090878-35.090878s35.090879 15.825298 35.090879 35.090878-15.825298 35.090879-35.090879 35.090879z m210.373257-105.272636c-38.703175 0-70.181757 31.478582-70.181757 70.181757 0 38.703175 31.478582 70.181757 70.181757 70.181757 38.703175 0 70.181757-31.478582 70.181758-70.181757 0-38.703175-31.478582-70.181757-70.181758-70.181757z m0 105.272636c-19.26558 0-35.090879-15.653284-35.090878-35.090879 0-19.26558 15.825298-35.090879 35.090878-35.090878s35.090879 15.825298 35.090879 35.090878-15.653284 35.090879-35.090879 35.090879z m0 0" p-id="5106" fill="#1296db"></path></svg>