<?xml version="1.0" standalone="no"?><!DOCTYPE svg PUBLIC "-//W3C//DTD SVG 1.1//EN" "http://www.w3.org/Graphics/SVG/1.1/DTD/svg11.dtd"><svg t="1522146576322" class="icon" style="" viewBox="0 0 1024 1024" version="1.1" xmlns="http://www.w3.org/2000/svg" p-id="2741" xmlns:xlink="http://www.w3.org/1999/xlink" width="32" height="32"><defs><style type="text/css"></style></defs><path d="M512 1024C230.4 1024 0 793.6 0 512S230.4 0 512 0s512 230.4 512 512S793.6 1024 512 1024zM512 85.333333C277.333333 85.333333 85.333333 277.333333 85.333333 512s192 426.666667 426.666667 426.666667 426.666667-192 426.666667-426.666667S746.666667 85.333333 512 85.333333z" p-id="2742" fill="#52A2EE"></path><path d="M554.666667 682.666667c-12.8 0-21.333333-4.266667-29.866667-12.8l-128-128c-17.066667-17.066667-17.066667-42.666667 0-59.733333l128-128c17.066667-17.066667 42.666667-17.066667 59.733333 0s17.066667 42.666667 0 59.733333L486.4 512l98.133333 98.133333c17.066667 17.066667 17.066667 42.666667 0 59.733333C576 678.4 567.466667 682.666667 554.666667 682.666667z" p-id="2743" fill="#52A2EE"></path></svg>