<?xml version="1.0" standalone="no"?><!DOCTYPE svg PUBLIC "-//W3C//DTD SVG 1.1//EN" "http://www.w3.org/Graphics/SVG/1.1/DTD/svg11.dtd"><svg t="1523620009220" class="icon" style="" viewBox="0 0 1024 1024" version="1.1" xmlns="http://www.w3.org/2000/svg" p-id="6826" xmlns:xlink="http://www.w3.org/1999/xlink" width="16" height="16"><defs><style type="text/css"></style></defs><path d="M451.84 13.50656C259.7888 36.83328 96.95232 169.74848 36.15744 353.0752c-78.70464 236.35968 26.85952 493.45536 248.84224 606.09536 247.1936 125.60384 548.58752 26.85952 674.19136-220.5696 115.93728-228.10624 41.94304-505.23136-172.72832-646.8608-45.47584-29.93152-111.69792-57.96864-165.66272-69.9904-51.6096-11.30496-116.40832-14.60224-168.96-8.2432z m-34.64192 278.0672c30.63808 7.30112 55.84896 21.20704 79.88224 44.29824l14.848 14.14144 14.848-14.14144c19.08736-18.3808 37.70368-30.16704 61.50144-38.88128 24.73984-9.18528 65.98656-11.78624 92.13952-5.65248 73.05216 17.2032 126.07488 83.65056 126.07488 157.88032 0 58.20416-22.14912 98.26304-89.5488 160.7168-57.96864 53.9648-185.22112 162.12992-195.584 166.36928-15.55456 6.12352-20.50048 2.82624-124.66176-86.72256-98.73408-84.82816-137.37984-123.00288-154.34752-151.7568-38.88128-66.4576-31.81568-143.5136 17.90976-196.7616 24.50432-26.15296 55.84896-44.53376 86.25152-50.432 17.664-3.29728 54.4256-2.82624 70.68672 0.94208z" p-id="6827" fill="#1296db"></path><path d="M353.34144 342.4768c-46.66368 10.84416-84.13184 58.6752-84.13184 106.98752 0.23552 34.87744 12.96384 61.0304 48.31232 97.55648 43.12064 44.53376 188.75392 171.07968 195.34848 169.43104 3.29728-0.70656 62.44352-50.19648 118.05696-98.73408 50.432-43.8272 100.38272-95.20128 109.1072-111.93344 24.73984-47.83104 16.49664-101.56032-20.97152-136.20224-22.14912-20.50048-45.24032-29.46048-76.34944-29.696-34.87744 0-56.32 10.37312-90.49088 43.59168-13.6704 13.19936-27.57632 25.4464-30.63808 27.09504-11.54048 5.888-20.50048 1.41312-48.5376-25.91744-27.33056-26.38848-41.70752-35.584-63.62112-41.472-13.19936-3.5328-42.42432-4.00384-56.08448-0.70656z" p-id="6828" fill="#1296db"></path></svg>