<?xml version="1.0" standalone="no"?><!DOCTYPE svg PUBLIC "-//W3C//DTD SVG 1.1//EN" "http://www.w3.org/Graphics/SVG/1.1/DTD/svg11.dtd"><svg t="1523731821114" class="icon" style="" viewBox="0 0 1024 1024" version="1.1" xmlns="http://www.w3.org/2000/svg" p-id="1440" xmlns:xlink="http://www.w3.org/1999/xlink" width="48" height="48"><defs><style type="text/css"></style></defs><path d="M244.032 46.72l-227.648 58.048C5.632 106.304 0 112.512 0 121.792v86.72c0 11.904 6.528 19.456 17.792 18.304l228.608-52.288a22.592 22.592 0 0 0 15.232-22.912V58.368c0-13.568-12.288-13.376-17.6-11.648zM244.032 249.408l-227.648 58.048c-10.752 1.536-16.384 7.68-16.384 16.896v86.784c0 11.968 6.528 19.648 17.792 18.368l40.704-9.344v531.392c0 9.792 8.064 8.448 17.728 8.448h107.84a17.792 17.792 0 0 0 17.792-17.728v-554.88l44.608-10.24a22.4 22.4 0 0 0 15.232-22.912V261.12c-0.064-13.632-12.352-13.44-17.664-11.712zM762.112 185.984h241.024a11.776 11.776 0 0 0 11.776-11.776V85.504a11.776 11.776 0 0 0-11.776-11.712h-241.024a11.712 11.712 0 0 0-11.712 11.712v88.704c0 6.528 5.248 11.776 11.712 11.776zM1012.288 278.336h-265.792a11.712 11.712 0 0 0-11.712 11.776v89.728c0 6.592 5.248 11.712 11.712 11.712h81.6v455.744l-76.288 16.512c-6.464 2.816-11.712 9.088-11.712 15.488v93.056a11.52 11.52 0 0 0 11.712 11.776l196.8-43.648c17.984-4.416 22.4-13.376 22.4-28.672v-520.32h41.216A11.52 11.52 0 0 0 1024 379.84V290.112a11.712 11.712 0 0 0-11.712-11.776zM696.832 766.144l-123.904 14.848v-88.384h108.544c7.872 0 14.208-6.4 14.208-14.144V578.304c0-7.744-6.4-14.144-14.208-14.144H572.928V470.592h117.568c7.808 0 14.272-6.4 14.272-14.336V356.352a14.336 14.336 0 0 0-14.272-14.208H572.928V256.064h108.544a14.144 14.144 0 0 0 14.208-14.08V141.952c0-7.808-6.4-14.208-14.208-14.208H572.928V57.472a17.92 17.92 0 0 0-17.856-17.664H449.728a17.728 17.728 0 0 0-17.664 17.664v70.208H323.52c-7.872 0-14.144 6.4-14.144 14.208V241.92c0 7.744 6.336 14.08 14.144 14.08h108.608v86.016h-117.76c-7.872 0-14.208 6.4-14.208 14.208V456.32c0 7.872 6.4 14.336 14.208 14.336h117.696v93.568H323.52c-7.872 0-14.144 6.4-14.144 14.144V678.4c0 7.744 6.336 14.144 14.144 14.144h108.608v105.216l-133.76 16.064a17.28 17.28 0 0 0-14.144 16.384v99.072c0 7.872 6.4 13.184 14.144 11.968l398.464-52.608a17.28 17.28 0 0 0 14.144-16.448v-94.08c0-7.872-6.4-13.184-14.144-11.968z" p-id="1441" fill="#1296db"></path></svg>