<?xml version="1.0" standalone="no"?><!DOCTYPE svg PUBLIC "-//W3C//DTD SVG 1.1//EN" "http://www.w3.org/Graphics/SVG/1.1/DTD/svg11.dtd"><svg t="1525587177736" class="icon" style="" viewBox="0 0 1024 1024" version="1.1" xmlns="http://www.w3.org/2000/svg" p-id="6122" xmlns:xlink="http://www.w3.org/1999/xlink" width="64" height="64"><defs><style type="text/css"></style></defs><path d="M508.5 154.4c50.1 0 98.5 8.3 143.9 24.6 43.1 15.5 81.7 37.5 114.6 65.5 64.2 54.5 99.5 125.8 99.5 200.7 0 74.9-35.3 146.2-99.5 200.7-32.9 27.9-71.4 50-114.6 65.5C607 727.7 558.6 736 508.5 736c-14.9 0-63.2-5.8-99.3-11.1l-31.7-4.7-27.5 16.4-96 57.1 7.4-90.1 2.9-34.2-20.8-27.4c-1-1.3-25.8-34.6-49.9-78.1-38.9-70.2-43.1-106.5-43.1-118.8 0-74.9 35.3-146.1 99.5-200.7 32.9-27.9 71.4-50 114.6-65.5 45.4-16.2 93.8-24.5 143.9-24.5m0-90c-247.4 0-448 170.5-448 380.8 0 104.1 111.2 251.1 111.2 251.1l-21.6 264.1L396 813.9S477.6 826 508.5 826c247.4 0 448-170.5 448-380.8S755.9 64.4 508.5 64.4z" p-id="6123" fill="#1296db"></path><path d="M692.8 394.5c37.1 0 67.2 25.1 67.2 56s-30.1 56-67.2 56-67.2-25.1-67.2-56 30.1-56 67.2-56zM513.6 394.5c37.1 0 67.2 25.1 67.2 56s-30.1 56-67.2 56-67.2-25.1-67.2-56 30.1-56 67.2-56zM334.4 394.5c37.1 0 67.2 25.1 67.2 56s-30.1 56-67.2 56-67.2-25.1-67.2-56 30.1-56 67.2-56z" p-id="6124" fill="#1296db"></path></svg>