<?xml version="1.0" standalone="no"?><!DOCTYPE svg PUBLIC "-//W3C//DTD SVG 1.1//EN" "http://www.w3.org/Graphics/SVG/1.1/DTD/svg11.dtd"><svg t="1520663027400" class="icon" style="" viewBox="0 0 1024 1024" version="1.1" xmlns="http://www.w3.org/2000/svg" p-id="9363" xmlns:xlink="http://www.w3.org/1999/xlink" width="32" height="32"><defs><style type="text/css"></style></defs><path d="M957.1328 848.9984a501.9648 501.9648 0 0 0-14.9504-28.0576 519.936 519.936 0 0 0-105.728-126.8736 516.096 516.096 0 0 0-182.1184-103.0144 315.136 315.136 0 0 0 70.8096-53.248 312.5248 312.5248 0 0 0 92.6208-222.72c0-84.1728-32.9216-163.328-92.6208-222.8224A314.5728 314.5728 0 0 0 502.272 0h-3.8912a314.5728 314.5728 0 0 0-218.9312 92.2624 312.5248 312.5248 0 0 0-92.6208 222.8224c0 84.1216 32.9216 163.2768 92.6208 222.72a317.3376 317.3376 0 0 0 70.8096 53.248 516.096 516.096 0 0 0-204.0832 123.392 519.3216 519.3216 0 0 0-83.7632 106.496A499.1488 499.1488 0 0 0 0.3072 1003.52c-0.7168 5.3248 0 19.0976 0 19.0976h59.7504s-0.512-6.2976 0-9.8304a464.7936 464.7936 0 0 1 130.7136-259.1744c81.3056-81.92 191.9488-133.3248 311.5008-133.5296 120.0128 0.4096 230.4 51.8144 311.552 133.5296a464.8448 464.8448 0 0 1 130.7136 259.1744c1.9456 13.312 1.3312 10.0352 0 9.8304 1.3312 0.2048 59.7504-1.4848 59.7504 0 0 1.536 2.304-1.8432 0-19.0976a498.9952 498.9952 0 0 0-47.1552-154.5216zM499.712 567.0912c-117.9648-0.8704-223.1808-82.5344-251.904-192.1536a232.96 232.96 0 0 1-7.8336-59.904 239.2576 239.2576 0 0 1 7.7824-60.4672c28.928-112.3328 135.1168-201.6256 253.8496-201.6256 120.1152 0 226.304 89.2928 255.1808 201.6256l0.9216 3.6864a233.0624 233.0624 0 0 1-0.9216 116.736c-28.7232 109.568-133.9392 191.232-251.904 192.1024H499.712z" p-id="9364" fill="#33A3F4"></path></svg>