<?xml version="1.0" standalone="no"?><!DOCTYPE svg PUBLIC "-//W3C//DTD SVG 1.1//EN" "http://www.w3.org/Graphics/SVG/1.1/DTD/svg11.dtd"><svg t="1523729116314" class="icon" style="" viewBox="0 0 1024 1024" version="1.1" xmlns="http://www.w3.org/2000/svg" p-id="1044" xmlns:xlink="http://www.w3.org/1999/xlink" width="16" height="16"><defs><style type="text/css"></style></defs><path d="M402.602667 713.706667a22.4 22.4 0 0 1-6.08-0.874667c-108.437333-32.256-184.170667-133.866667-184.170667-247.125333a21.333333 21.333333 0 1 1 42.666667 0c0 94.528 63.189333 179.306667 153.664 206.208a21.333333 21.333333 0 1 1-6.08 41.792zM915.114667 942.293333a21.290667 21.290667 0 0 1-15.381334-6.549333l-179.669333-186.922667a21.333333 21.333333 0 0 1 30.741333-29.589333l179.669334 186.922667a21.333333 21.333333 0 0 1-15.36 36.138666z" p-id="1045" fill="#1296db"></path><path d="M519.936 724.373333m-32 0a32 32 0 1 0 64 0 32 32 0 1 0-64 0Z" p-id="1046" fill="#1296db"></path><path d="M471.552 849.706667c-211.733333 0-384-172.266667-384-384s172.266667-384 384-384 384 172.266667 384 384a381.013333 381.013333 0 0 1-115.861333 274.901333 21.312 21.312 0 1 1-29.781334-30.549333 338.645333 338.645333 0 0 0 102.976-244.352c0-188.202667-153.130667-341.333333-341.333333-341.333334s-341.333333 153.130667-341.333333 341.333334 153.130667 341.333333 341.333333 341.333333c37.632 0 74.496-6.058667 109.653333-18.005333a21.354667 21.354667 0 0 1 13.717334 40.426666c-39.573333 13.44-81.066667 20.245333-123.370667 20.245334z" p-id="1047" fill="#1296db"></path></svg>