<?xml version="1.0" standalone="no"?><!DOCTYPE svg PUBLIC "-//W3C//DTD SVG 1.1//EN" "http://www.w3.org/Graphics/SVG/1.1/DTD/svg11.dtd"><svg t="1526274407026" class="icon" style="" viewBox="0 0 1024 1024" version="1.1" xmlns="http://www.w3.org/2000/svg" p-id="4592" xmlns:xlink="http://www.w3.org/1999/xlink" width="32" height="32"><defs><style type="text/css"></style></defs><path d="M920.100526 404.886809c0 0.71321 0 1.428561 0 2.141771-89.975798 0-179.949455 0-269.923112 0-4.996752 41.419709-0.717493 92.113286-2.143913 137.103327-91.402218 0-182.806578 0-274.208796 0 0-45.701109 0-91.402218 0-137.103327-89.975798 0-179.949455 0-269.925254 0 0-0.71321 0-1.428561 0-2.141771C240.825012 271.176048 374.002473 133.712903 510.928033 0 647.444515 134.841617 783.513366 270.118013 920.100526 404.886809z" p-id="4593" fill="#1296db"></path><path d="M375.966477 612.685713c90.689008 0 181.378016 0 272.067025 0 0 45.701109 0 91.40436 0 137.105469-91.402218 0-182.806578 0-274.208796 0C375.248984 704.80114 370.971867 654.105421 375.966477 612.685713z" p-id="4594" fill="#1296db"></path><path d="M648.033502 818.342845c0 22.852696 0 45.703251 0 68.553805-91.402218 0-182.806578 0-274.208796 0 1.417852-22.148054-2.844272-49.973942 2.141771-68.553805C466.655485 818.342845 557.344493 818.342845 648.033502 818.342845z" p-id="4595" fill="#1296db"></path><path d="M648.033502 1023.999977c-91.402218 0-182.806578 0-274.208796 0 0-22.850554 0-45.703251 0-68.553805 90.689008 1.428561 187.09012-2.854981 274.208796 2.143913C648.033502 979.727429 648.033502 1001.862632 648.033502 1023.999977z" p-id="4596" fill="#1296db"></path></svg>