<?xml version="1.0" standalone="no"?><!DOCTYPE svg PUBLIC "-//W3C//DTD SVG 1.1//EN" "http://www.w3.org/Graphics/SVG/1.1/DTD/svg11.dtd"><svg t="1523732812664" class="icon" style="" viewBox="0 0 1024 1024" version="1.1" xmlns="http://www.w3.org/2000/svg" p-id="1975" xmlns:xlink="http://www.w3.org/1999/xlink" width="48" height="48"><defs><style type="text/css"></style></defs><path d="M871.149002 473.933248C881.476962 500.740089 886.627637 536.035278 886.627637 582.068502 886.627637 789.269372 718.901173 957.224439 512.017703 957.224439 305.134385 957.224439 137.407957 789.26935 137.407957 582.068502 137.407957 536.155299 142.531815 500.924135 152.805796 474.143178L153.707326 471.323192C177.790193 377.994018 262.088412 311.414732 359.296087 311.414732 408.89046 311.414732 456.979248 329.041472 495.375773 360.958785L512.132908 374.888241 528.795122 360.845378C566.597839 328.985366 614.961263 311.414732 664.739493 311.414732 761.564625 311.414732 846.019749 377.996215 870.246926 471.127984L871.149002 473.933248ZM360.140106 119.915372C365.640011 129.730246 370.008336 140.914554 373.241721 153.386396 373.289135 153.569288 373.336227 153.752206 373.382993 153.935147 196.865588 212.185062 69.459308 378.641623 69.459308 574.884708 69.459308 819.608678 267.591539 1018.010988 512.017703 1018.010988 756.444011 1018.010988 954.576271 819.608706 954.576271 574.884708 954.576271 378.961016 827.584382 212.726997 651.514023 154.220435L651.514023 154.220435C651.584583 153.94237 651.655893 153.664352 651.727955 153.386395 654.93487 141.016648 659.258222 129.913441 664.69473 120.156681 685.137625 126.174789 721.341839 125.183647 783.76511 109.005994 825.6028 98.163223 852.033454 50.478667 807.490843 10.372232 778.660449-15.586827 720.16435 15.033065 682.4832 39.865217L682.4832 39.865217C681.039384 40.330103 679.619133 40.941239 678.241769 41.70411 641.735416 61.923655 617.737459 96.355952 605.992922 141.657107 605.983765 141.692433 605.974615 141.72776 605.965475 141.763087 575.687064 135.209615 544.255025 131.758427 512.017703 131.758427 480.094309 131.758427 448.960587 135.142732 418.954809 141.57253L418.954809 141.57253C407.202337 96.313092 383.211536 61.911069 346.727906 41.70411 344.832699 40.654424 342.856291 39.892017 340.849027 39.402596 303.146918 14.65548 245.196385-15.42585 216.544764 10.372232 172.0021 50.478667 198.43279 98.163223 240.270515 109.005994 303.515579 125.396624 339.846701 126.198253 360.140106 119.915372Z" p-id="1976" fill="#1296db"></path><path d="M742.274261 695.215705C740.893826 699.229656 739.343771 703.38187 737.632942 707.628183 728.600057 730.047901 716.699559 751.275666 702.117589 770.436445 657.162927 829.507148 594.273523 860.414438 512.017703 860.414438 429.761937 860.414438 366.872691 829.507197 321.917883 770.43644 307.335966 751.275582 295.43545 730.04776 286.402617 707.628173 284.691748 703.381761 283.141679 699.229542 281.761277 695.215708L281.761277 695.215708C283.042889 694.604533 284.328009 694.030267 285.616354 693.492724 290.282317 691.545926 294.674618 690.227981 298.635002 689.519809 300.119835 689.254299 301.307031 689.11439 301.276899 689.11439 314.333812 689.11439 324.934812 678.562471 324.934812 665.525829 324.934812 652.48919 314.333812 641.937269 301.276899 641.937269 298.345304 641.937269 294.554742 642.319612 290.282572 643.083542 282.901839 644.403325 275.198785 646.698107 267.351179 649.972399 244.170948 659.644001 222.566811 676.534295 203.434227 700.482649 195.282592 710.686069 196.985637 725.546256 207.229391 733.654486 217.449119 741.743727 232.311056 740.056206 240.443548 729.87672 241.31908 728.780816 242.198396 727.706853 243.081376 726.654756 253.596323 752.402699 267.345453 776.774038 284.225015 798.953989 338.097749 869.742993 414.825312 907.591506 512.017703 907.591506 609.210262 907.591506 685.937841 869.742991 739.810434 798.954001 756.690087 776.774042 770.439251 752.402685 780.954171 726.654736 781.837158 727.706843 782.71648 728.780812 783.592018 729.876726 791.724506 740.056206 806.586437 741.743729 816.806174 733.654478 827.049916 725.546256 828.752969 710.686067 820.601325 700.48264 801.46872 676.534277 779.864595 659.643993 756.684364 649.972399 748.836749 646.698102 741.133713 644.403323 733.752986 643.08354L733.752983 643.08354C729.480799 642.319612 725.690243 641.937269 722.758656 641.937269 709.701747 641.937269 699.100733 652.489192 699.100733 665.525829 699.100733 678.562469 709.701747 689.11439 722.758656 689.11439 722.728524 689.11439 723.915717 689.254299 725.400566 689.51981 729.360929 690.227981 733.753233 691.545928 738.419195 693.492726 739.707536 694.030267 740.992654 694.604531 742.274261 695.215705ZM621.30714 632.972409C603.106148 632.972409 588.351349 611.610207 588.351349 585.258522 588.351349 558.90701 603.106148 537.544635 621.30714 537.544635 639.508306 537.544635 654.263105 558.90701 654.263105 585.258522 654.263105 611.610207 639.508306 632.972409 621.30714 632.972409ZM411.587948 632.972409C393.386956 632.972409 378.631984 611.610207 378.631984 585.258522 378.631984 558.90701 393.386956 537.544635 411.587948 537.544635 429.788941 537.544635 444.543913 558.90701 444.543913 585.258522 444.543913 611.610207 429.788941 632.972409 411.587948 632.972409ZM512.017703 763.569378C468.200569 763.569378 432.679745 736.892442 432.679745 703.984727 432.679745 671.077012 468.200569 644.400076 512.017703 644.400076 555.83501 644.400076 591.355835 671.077012 591.355835 703.984727 591.355835 736.892442 555.83501 763.569378 512.017703 763.569378Z" p-id="1977" fill="#1296db"></path></svg>